<svg width="16" height="16" viewBox="0 0 16 16" fill="none" xmlns="http://www.w3.org/2000/svg">
    <path d="M13.9647 5.53664C13.9574 5.03197 13.864 4.5313 13.6854 4.0593C13.3727 3.2533 12.736 2.61597 11.93 2.30397C11.464 2.12864 10.9714 2.03464 10.4727 2.02397C9.83138 1.9953 9.62805 1.9873 8.00005 1.9873C6.37205 1.9873 6.16338 1.9873 5.52671 2.02397C5.02871 2.03464 4.53605 2.12864 4.07005 2.30397C3.26405 2.61597 2.62671 3.2533 2.31471 4.0593C2.13938 4.5253 2.04471 5.01797 2.03538 5.51597C2.00671 6.15797 1.99805 6.3613 1.99805 7.9893C1.99805 9.6173 1.99805 9.8253 2.03538 10.4626C2.04538 10.9613 2.13938 11.4533 2.31471 11.9206C2.62738 12.726 3.26405 13.3633 4.07071 13.6753C4.53471 13.8566 5.02738 13.9593 5.52738 13.9753C6.16938 14.004 6.37271 14.0126 8.00071 14.0126C9.62871 14.0126 9.83738 14.0126 10.474 13.9753C10.972 13.9653 11.4647 13.8713 11.9314 13.696C12.7374 13.3833 13.374 12.746 13.6867 11.9406C13.862 11.474 13.956 10.982 13.966 10.4826C13.9947 9.8413 14.0034 9.63797 14.0034 8.0093C14.002 6.3813 14.002 6.17464 13.9647 5.53664ZM7.99605 11.068C6.29338 11.068 4.91405 9.68864 4.91405 7.98597C4.91405 6.2833 6.29338 4.90397 7.99605 4.90397C9.69738 4.90397 11.078 6.2833 11.078 7.98597C11.078 9.68864 9.69738 11.068 7.99605 11.068ZM11.2007 5.50864C10.8027 5.50864 10.482 5.1873 10.482 4.78997C10.482 4.39264 10.8027 4.0713 11.2007 4.0713C11.5974 4.0713 11.9187 4.39264 11.9187 4.78997C11.9187 5.1873 11.5974 5.50864 11.2007 5.50864Z" fill="#D0BC7A"/>
    <path d="M7.99602 9.98801C9.10169 9.98801 9.99802 9.09168 9.99802 7.98601C9.99802 6.88033 9.10169 5.98401 7.99602 5.98401C6.89034 5.98401 5.99402 6.88033 5.99402 7.98601C5.99402 9.09168 6.89034 9.98801 7.99602 9.98801Z" fill="#D0BC7A"/>
</svg>
